<svg xmlns="http://www.w3.org/2000/svg" width="512" height="512" viewBox="0 0 512 512" fill="none"><rect width="512" height="512" rx="50" fill="#3178C6"/><path fill-rule="evenodd" clip-rule="evenodd" d="M316.939 407.424V457.424C325.07 461.593 334.69 464.72 345.799 466.805C356.908 468.891 368.615 469.933 380.922 469.933C392.914 469.933 404.302 468.787 415.085 466.496C425.868 464.205 435.33 460.428 443.471 455.165C451.612 449.902 458.056 443.038 462.802 434.573C467.548 426.108 469.921 415.715 469.921 403.393C469.921 394.459 468.586 386.629 465.915 379.902C463.244 373.175 459.391 367.187 454.356 361.939C449.321 356.691 443.281 351.981 436.236 347.809C429.191 343.637 421.252 339.699 412.418 335.995C405.948 333.339 400.141 330.761 394.995 328.26C389.849 325.76 385.476 323.208 381.875 320.605C378.274 318.001 375.498 315.242 373.548 312.327C371.597 309.411 370.622 306.131 370.622 302.487C370.622 299.154 371.493 296.133 373.235 293.426C374.977 290.719 377.44 288.401 380.625 286.473C383.81 284.544 387.724 283.059 392.368 282.017C397.012 280.976 402.158 280.455 407.808 280.455C411.929 280.455 416.287 280.767 420.883 281.391C425.479 282.016 430.101 282.979 434.747 284.28C439.394 285.582 443.909 287.218 448.294 289.189C452.679 291.16 456.698 293.426 460.351 295.987V249.112C452.741 246.195 444.428 244.033 435.412 242.625C426.396 241.217 416.051 240.513 404.376 240.513C392.489 240.513 381.153 241.789 370.369 244.341C359.586 246.893 350.071 250.878 341.825 256.297C333.579 261.716 327.057 268.605 322.26 276.964C317.463 285.323 315.064 295.299 315.064 306.891C315.064 321.585 319.314 334.117 327.814 344.488C336.314 354.859 349.219 363.638 366.529 370.824C373.312 373.584 379.636 376.291 385.5 378.947C391.364 381.603 396.432 384.363 400.705 387.227C404.978 390.091 408.351 393.215 410.823 396.6C413.295 399.985 414.531 403.837 414.531 408.158C414.531 411.283 413.764 414.188 412.231 416.871C410.698 419.555 408.395 421.888 405.323 423.868C402.251 425.849 398.433 427.396 393.869 428.511C389.305 429.625 383.983 430.182 377.903 430.182C367.567 430.182 357.326 428.371 347.183 424.749C337.039 421.126 327.591 415.69 318.84 408.44L316.939 407.424ZM232.78 284.699H296.767V243.818H118.773V284.699H182.457V469.179H232.78V284.699Z" fill="white"/></svg>
